<svg xmlns="http://www.w3.org/2000/svg" viewBox="0 0 100 100" width="100" height="100">
  <defs>
    <linearGradient id="grad1" x1="0%" y1="0%" x2="100%" y2="100%">
      <stop offset="0%" style="stop-color:#2563eb;stop-opacity:1" />
      <stop offset="100%" style="stop-color:#1d4ed8;stop-opacity:1" />
    </linearGradient>
  </defs>
  
  <!-- 배경 원 -->
  <circle cx="50" cy="50" r="45" fill="url(#grad1)" stroke="#1e40af" stroke-width="2"/>
  
  <!-- Kafka 스트림을 나타내는 선들 -->
  <g stroke="#ffffff" stroke-width="3" fill="none" stroke-linecap="round">
    <!-- 상단 스트림 -->
    <path d="M20 30 Q35 25 50 30 Q65 35 80 30" opacity="0.9"/>
    <path d="M20 40 Q35 35 50 40 Q65 45 80 40" opacity="0.7"/>
    
    <!-- 중앙 스트림 (굵게) -->
    <path d="M20 50 Q35 45 50 50 Q65 55 80 50" stroke-width="4"/>
    
    <!-- 하단 스트림 -->
    <path d="M20 60 Q35 55 50 60 Q65 65 80 60" opacity="0.7"/>
    <path d="M20 70 Q35 65 50 70 Q65 75 80 70" opacity="0.9"/>
  </g>
  
  <!-- 거버넌스를 나타내는 방패 아이콘 -->
  <g fill="#ffffff" opacity="0.8">
    <path d="M50 15 L58 20 L58 30 Q58 35 50 38 Q42 35 42 30 L42 20 Z"/>
    <circle cx="50" cy="27" r="2"/>
  </g>
</svg>
